<?xml version="1.0" standalone="no"?>
<!DOCTYPE svg PUBLIC "-//W3C//DTD SVG 20010904//EN"
 "http://www.w3.org/TR/2001/REC-SVG-20010904/DTD/svg10.dtd">
<svg version="1.0" xmlns="http://www.w3.org/2000/svg"
 width="256.000000pt" height="256.000000pt" viewBox="0 0 256.000000 256.000000"
 preserveAspectRatio="xMidYMid meet">
<metadata>
Created by potrace 1.16, written by Peter Selinger 2001-2019
</metadata>
<g transform="translate(0.000000,256.000000) scale(0.100000,-0.100000)"
fill="#000000" stroke="none">
<path d="M1447 2431 c37 -23 60 -55 73 -101 8 -27 5 -47 -16 -104 -48 -132
-50 -142 -31 -180 10 -22 31 -43 56 -56 57 -29 85 -25 35 5 -64 38 -67 55 -27
160 28 73 34 100 30 143 -5 75 -53 133 -122 147 l-30 7 32 -21z"/>
<path d="M922 2229 c52 -15 74 -42 60 -74 -6 -13 -24 -32 -39 -41 -55 -34 -73
-57 -73 -90 0 -37 15 -52 61 -60 33 -5 33 -5 9 8 -34 19 -36 43 -5 65 82 57
96 74 93 116 -2 33 -9 44 -33 58 -16 10 -48 20 -70 23 l-40 5 37 -10z"/>
<path d="M703 2200 c-12 -5 -30 -21 -39 -35 -17 -26 -17 -28 6 -69 18 -33 21
-51 16 -79 -10 -54 -43 -74 -134 -82 -84 -8 -112 -18 -112 -40 0 -8 -5 -15
-11 -15 -6 0 -9 12 -7 28 2 19 13 32 38 44 29 15 31 18 13 18 -13 0 -37 -13
-55 -29 -31 -28 -32 -30 -15 -48 9 -11 17 -27 17 -36 0 -17 34 -32 50 -22 5 3
10 12 10 20 0 22 17 28 105 36 89 8 118 20 134 56 17 36 14 128 -4 143 -8 7
-15 19 -15 26 0 21 48 47 86 46 23 -1 34 3 34 13 0 30 -68 45 -117 25z"/>
<path d="M1796 2194 c-22 -21 -21 -26 19 -74 107 -128 -53 -236 -277 -189
-103 22 -194 84 -205 141 -4 23 -11 28 -33 28 -23 0 -29 -5 -34 -31 -27 -136
-367 -202 -482 -94 -27 26 -34 29 -34 14 0 -24 44 -74 78 -88 19 -8 76 -11
165 -9 76 2 137 2 137 0 0 -16 -32 -72 -46 -80 -15 -9 -12 -15 33 -61 77 -78
143 -230 143 -328 l0 -33 -100 0 c-94 0 -129 -11 -77 -23 33 -8 430 -7 443 1
7 4 17 34 24 67 14 70 48 141 82 172 32 31 107 63 146 63 18 0 55 -11 82 -25
59 -30 68 -30 98 -5 19 16 23 29 23 78 1 92 -33 141 -106 157 l-30 7 32 -21
c46 -29 66 -74 61 -133 -7 -68 -16 -74 -69 -44 -62 36 -116 42 -180 21 -103
-35 -168 -124 -187 -258 l-7 -52 -98 -3 -97 -3 0 39 c0 89 -47 209 -118 299
l-40 50 16 48 c14 44 14 50 0 59 -13 8 -5 15 41 36 61 29 111 79 111 111 0 27
17 24 24 -6 9 -37 72 -92 130 -114 41 -15 84 -20 214 -22 90 -2 154 -2 142 1
-19 4 -17 7 14 24 35 19 66 67 66 104 0 32 -19 75 -47 103 -23 25 -23 28 -7
37 22 12 53 4 82 -21 18 -17 22 -18 22 -5 0 30 -12 49 -41 63 -37 20 -94 19
-113 -1z"/>
<path d="M146 1961 c10 -9 282 -198 427 -296 82 -55 87 -61 80 -85 -4 -14 -8
-59 -8 -100 0 -64 4 -82 28 -122 30 -52 68 -83 113 -93 l29 -7 -35 25 c-39 27
-84 102 -94 156 -4 21 0 58 10 93 13 44 14 61 5 72 -10 11 -2 19 41 40 62 31
101 33 160 7 53 -23 100 -72 127 -131 13 -29 21 -38 21 -24 0 11 -14 49 -31
83 -24 48 -43 70 -77 92 -90 57 -141 61 -231 19 -35 -17 -65 -29 -66 -28 -1 2
-8 12 -14 23 -12 19 -12 19 -8 -2 3 -13 3 -23 1 -23 -5 0 -35 21 -306 208 -81
56 -155 102 -164 102 -11 0 -14 -3 -8 -9z"/>
<path d="M2467 1919 c19 -63 7 -112 -37 -162 -25 -29 -52 -41 -184 -83 -128
-40 -156 -52 -156 -67 0 -11 5 -17 13 -15 6 3 94 31 194 63 l183 58 20 42 c35
72 18 206 -27 213 -21 3 -21 2 -6 -49z"/>
<path d="M2520 1668 c0 -65 -24 -115 -69 -145 -32 -21 -45 -23 -187 -23 -140
0 -154 -2 -154 -17 0 -17 14 -18 187 -15 177 3 189 5 211 25 40 37 52 71 52
152 0 68 -2 75 -20 75 -17 0 -20 -7 -20 -52z"/>
<path d="M2500 1420 c-16 -65 -51 -107 -100 -120 -35 -9 -53 -6 -163 30 -68
22 -129 40 -135 40 -16 0 -15 -30 1 -34 6 -2 80 -25 163 -51 l152 -48 43 29
c56 38 81 82 83 147 1 40 -3 52 -15 55 -13 2 -20 -10 -29 -48z"/>
<path d="M66 1390 c12 -66 53 -120 101 -134 32 -10 313 80 313 99 0 21 -7 20
-148 -25 -84 -27 -136 -39 -154 -35 -40 9 -78 43 -100 89 l-19 41 7 -35z"/>
<path d="M1689 1123 c-1 -136 -4 -261 -8 -278 -6 -28 -9 -30 -56 -30 -45 0
-50 -2 -53 -23 -2 -13 -10 -26 -18 -29 -8 -3 -14 -13 -14 -23 0 -9 -9 -25 -20
-35 -26 -23 -25 -27 5 -63 l25 -30 -47 -30 c-69 -43 -134 -62 -217 -62 -87 0
-154 18 -220 60 l-48 31 21 23 c24 26 28 64 6 72 -8 4 -15 15 -15 25 0 11 -6
22 -14 25 -8 3 -17 19 -20 36 -6 30 -7 31 -56 25 -42 -5 -50 -3 -50 10 0 9 -3
14 -6 10 -3 -3 -3 -14 0 -25 6 -17 13 -19 51 -14 48 5 54 -1 30 -36 -16 -21
-15 -22 15 -16 23 5 30 3 30 -9 0 -9 -7 -22 -15 -31 -21 -21 -19 -23 15 -18
21 3 30 0 30 -10 0 -31 -87 -88 -135 -88 -18 0 -25 -5 -25 -20 0 -25 19 -25
72 1 l43 21 60 -37 c80 -48 143 -65 237 -65 91 0 169 24 238 71 l45 32 53 -28
c64 -34 118 -95 133 -149 15 -55 -2 -107 -52 -160 l-39 -41 6 31 c8 42 -19
132 -51 169 l-26 30 21 -40 c13 -27 20 -59 20 -100 0 -108 -74 -200 -197 -247
-26 -10 -48 -16 -50 -15 -1 2 9 25 22 52 36 70 32 166 -10 228 -11 15 -12 7
-8 -47 7 -86 -10 -144 -64 -217 l-43 -59 40 0 c27 0 43 5 46 15 6 14 8 13 19
-1 11 -15 18 -16 61 -5 87 22 175 88 206 156 6 14 19 22 35 22 13 0 37 13 53
28 83 80 80 207 -6 296 -22 23 -32 39 -25 43 6 4 11 15 11 26 0 10 7 20 15 24
8 3 15 15 15 26 0 11 7 23 15 26 28 11 18 64 -19 99 -32 29 -34 35 -29 80 4
33 8 43 14 32 12 -20 105 -43 122 -29 8 7 18 7 27 2 8 -6 41 -10 73 -10 48 0
57 3 57 18 0 15 7 17 41 14 23 -3 59 1 80 8 33 11 39 17 39 42 0 26 3 28 38
28 55 0 122 49 122 89 0 16 -6 31 -12 34 -7 2 3 8 22 12 48 11 75 30 100 72
24 42 23 86 -2 91 -11 2 -18 -3 -18 -12 0 -9 -19 -36 -43 -61 -38 -39 -49 -45
-84 -45 -40 0 -114 40 -204 111 -35 27 -49 29 -49 4 0 -6 55 -49 123 -95 67
-46 124 -85 127 -87 10 -9 -66 -63 -97 -69 -44 -8 -77 14 -143 97 -51 63 -75
80 -75 51 0 -6 29 -46 65 -88 101 -120 98 -112 54 -130 -69 -29 -110 -4 -154
93 -27 59 -38 71 -53 57 -3 -4 14 -46 38 -94 l44 -89 -28 -6 c-60 -13 -108 29
-118 105 -5 36 -20 50 -35 35 -3 -3 1 -33 10 -66 8 -33 12 -62 9 -66 -10 -10
-57 7 -79 29 -20 20 -21 28 -17 237 4 199 3 216 -13 219 -17 3 -18 -14 -19
-245z m-9 -343 c41 -21 73 -57 63 -73 -3 -5 -18 -7 -34 -5 -27 4 -28 3 -13
-13 24 -27 11 -53 -23 -44 -26 6 -27 6 -10 -13 24 -27 21 -42 -10 -42 -50 0
-147 72 -126 94 3 3 17 6 31 6 20 0 22 2 12 15 -19 23 -4 48 25 42 24 -4 24
-3 10 13 -38 42 7 54 75 20z"/>
<path d="M1000 1260 c-18 -18 -20 -33 -20 -190 0 -157 2 -172 20 -190 11 -11
23 -20 28 -20 4 0 7 79 7 176 0 152 2 178 16 187 13 8 40 -5 126 -61 60 -40
118 -72 128 -72 10 0 68 32 128 71 93 60 114 70 129 60 15 -9 18 -8 18 8 0 25
-26 51 -51 51 -11 0 -71 -33 -133 -74 l-114 -74 -111 74 c-61 41 -120 74 -131
74 -11 0 -29 -9 -40 -20z"/>
<path d="M489 1246 c-8 -8 -51 -39 -97 -70 -62 -41 -92 -56 -118 -56 -47 0
-87 22 -113 62 -14 23 -21 28 -21 15 0 -23 45 -94 67 -105 10 -5 33 -13 52
-17 31 -7 44 0 147 70 63 43 114 83 114 91 0 20 -15 25 -31 10z"/>
<path d="M833 1253 c15 -4 17 -20 17 -157 0 -170 -5 -185 -67 -211 -20 -9 -38
-14 -39 -12 -2 2 5 33 15 70 10 37 16 69 13 72 -13 12 -32 3 -32 -15 0 -11 -7
-38 -16 -60 -18 -45 -55 -70 -104 -70 -23 0 -30 -4 -30 -20 0 -18 7 -20 58
-20 31 0 63 4 71 9 9 6 21 5 30 -1 11 -7 30 -6 58 1 73 20 73 20 73 226 0 181
0 183 -22 189 -13 3 -27 5 -33 5 -5 -1 -2 -3 8 -6z"/>
<path d="M1100 905 c0 -3 39 -30 86 -61 49 -32 83 -60 80 -67 -29 -70 -30 -87
-6 -138 l24 -51 22 49 c22 47 22 51 7 105 -16 56 -18 58 -103 113 -80 50 -110
64 -110 50z"/>
<path d="M925 395 c-31 -52 -49 -118 -39 -147 10 -33 -17 -17 -55 33 -32 42
-34 42 -27 14 11 -47 58 -99 94 -105 24 -4 39 -17 63 -53 37 -57 114 -111 182
-129 44 -11 50 -11 62 5 11 15 14 15 25 2 7 -8 22 -15 33 -15 19 0 17 4 -15
38 -20 20 -45 54 -56 75 -11 22 -22 32 -25 25 -2 -7 -3 30 -2 82 1 52 5 104
10 114 16 37 -15 6 -37 -37 -29 -58 -29 -147 1 -204 25 -51 18 -53 -55 -19
-135 63 -201 209 -144 321 28 55 17 56 -15 0z"/>
</g>
</svg>
